<mxfile host="app.diagrams.net" modified="2024-02-02T15:08:17.498Z" agent="Mozilla/5.0 (Windows NT 10.0; Win64; x64) AppleWebKit/537.36 (KHTML, like Gecko) Chrome/120.0.0.0 Safari/537.36 OPR/106.0.0.0" etag="IZpTrvr1AFE4mdog0GLv" version="23.0.2" type="device">
  <diagram name="Page-1" id="03018318-947c-dd8e-b7a3-06fadd420f32">
    <mxGraphModel dx="1345" dy="764" grid="1" gridSize="10" guides="1" tooltips="1" connect="1" arrows="1" fold="1" page="1" pageScale="1" pageWidth="1100" pageHeight="850" background="none" math="0" shadow="0">
      <root>
        <mxCell id="0" />
        <mxCell id="1" parent="0" />
        <mxCell id="lokVkErCchEa_lnMMED--32" value="" style="rounded=0;whiteSpace=wrap;html=1;" parent="1" vertex="1">
          <mxGeometry x="20" y="30" width="1060" height="2100" as="geometry" />
        </mxCell>
        <mxCell id="677b7b8949515195-1" value="" style="whiteSpace=wrap;html=1;rounded=0;shadow=0;labelBackgroundColor=none;strokeColor=#000000;strokeWidth=1;fillColor=none;fontFamily=Verdana;fontSize=12;fontColor=#000000;align=center;comic=1;" parent="1" vertex="1">
          <mxGeometry x="20" y="130" width="1060" height="2000" as="geometry" />
        </mxCell>
        <mxCell id="677b7b8949515195-4" value="ABOUT" style="text;html=1;points=[];align=left;verticalAlign=top;spacingTop=-4;fontSize=14;fontFamily=Verdana" parent="1" vertex="1">
          <mxGeometry x="860" y="70" width="60" height="20" as="geometry" />
        </mxCell>
        <mxCell id="677b7b8949515195-7" value="LOGIN" style="text;html=1;points=[];align=left;verticalAlign=top;spacingTop=-4;fontSize=14;fontFamily=Verdana" parent="1" vertex="1">
          <mxGeometry x="960" y="70" width="60" height="20" as="geometry" />
        </mxCell>
        <mxCell id="677b7b8949515195-49" value="&lt;font size=&quot;1&quot; face=&quot;Helvetica&quot;&gt;&lt;b style=&quot;font-size: 36px;&quot;&gt;VEGG.AI&lt;/b&gt;&lt;/font&gt;" style="text;html=1;points=[];align=center;verticalAlign=top;spacingTop=-4;fontSize=14;fontFamily=Verdana" parent="1" vertex="1">
          <mxGeometry x="20" y="360" width="1060" height="20" as="geometry" />
        </mxCell>
        <mxCell id="lokVkErCchEa_lnMMED--2" value="&lt;font face=&quot;Helvetica&quot;&gt;&lt;span style=&quot;font-size: 18px;&quot;&gt;YOUR ONE-STOP VEGETABLE IMAGE CLASSIFIER&lt;/span&gt;&lt;/font&gt;" style="text;html=1;points=[];align=center;verticalAlign=top;spacingTop=-4;fontSize=14;fontFamily=Verdana" parent="1" vertex="1">
          <mxGeometry x="20" y="425" width="1060" height="90" as="geometry" />
        </mxCell>
        <mxCell id="lokVkErCchEa_lnMMED--4" value="" style="rounded=1;whiteSpace=wrap;html=1;" parent="1" vertex="1">
          <mxGeometry x="320" y="1250" width="460" height="290" as="geometry" />
        </mxCell>
        <mxCell id="lokVkErCchEa_lnMMED--22" value="SUBMIT" style="rounded=1;whiteSpace=wrap;html=1;" parent="1" vertex="1">
          <mxGeometry x="485" y="1615" width="130" height="35" as="geometry" />
        </mxCell>
        <mxCell id="lokVkErCchEa_lnMMED--24" value="" style="rounded=1;whiteSpace=wrap;html=1;" parent="1" vertex="1">
          <mxGeometry x="60.5" y="800" width="300" height="300" as="geometry" />
        </mxCell>
        <mxCell id="lokVkErCchEa_lnMMED--25" value="" style="rounded=1;whiteSpace=wrap;html=1;" parent="1" vertex="1">
          <mxGeometry x="402" y="800" width="300" height="300" as="geometry" />
        </mxCell>
        <mxCell id="lokVkErCchEa_lnMMED--26" value="" style="rounded=1;whiteSpace=wrap;html=1;" parent="1" vertex="1">
          <mxGeometry x="744.5" y="800" width="300" height="300" as="geometry" />
        </mxCell>
        <mxCell id="lokVkErCchEa_lnMMED--27" value="&lt;h1&gt;EASY-TO-USE WEBSITE&lt;/h1&gt;&lt;div&gt;Simply upload an image of the vegetable, and let our AI handle the rest.&lt;br&gt;&lt;/div&gt;" style="text;html=1;strokeColor=none;fillColor=none;spacing=5;spacingTop=-20;whiteSpace=wrap;overflow=hidden;rounded=0;" parent="1" vertex="1">
          <mxGeometry x="80.5" y="940" width="260" height="120" as="geometry" />
        </mxCell>
        <mxCell id="lokVkErCchEa_lnMMED--28" value="&lt;h1&gt;AI-POWERED PREDICTIONS&lt;/h1&gt;&lt;div&gt;Our advanced machine learning algorithms analyze thousands of data points to provide you with accurate vegetable classifications, with an accuracy of 99%.&lt;br&gt;&lt;/div&gt;" style="text;html=1;strokeColor=none;fillColor=none;spacing=5;spacingTop=-20;whiteSpace=wrap;overflow=hidden;rounded=0;" parent="1" vertex="1">
          <mxGeometry x="422" y="940" width="260" height="140" as="geometry" />
        </mxCell>
        <mxCell id="lokVkErCchEa_lnMMED--29" value="&lt;h1&gt;FLEXIBILITY&lt;/h1&gt;&lt;div&gt;&lt;br&gt;&lt;/div&gt;&lt;div&gt;&lt;br&gt;&lt;/div&gt;&lt;div&gt;Our AI models work on different images sizes of 128x128 or 31x31 and will resize your image accordingly, utilizing different models per image size.&lt;/div&gt;" style="text;html=1;strokeColor=none;fillColor=none;spacing=5;spacingTop=-20;whiteSpace=wrap;overflow=hidden;rounded=0;" parent="1" vertex="1">
          <mxGeometry x="765.5" y="940" width="260" height="120" as="geometry" />
        </mxCell>
        <mxCell id="lokVkErCchEa_lnMMED--34" value="&lt;font style=&quot;font-size: 18px;&quot; face=&quot;Helvetica&quot;&gt;&lt;b&gt;PREDICTION HISTORY&lt;/b&gt;&lt;/font&gt;" style="text;html=1;points=[];align=center;verticalAlign=top;spacingTop=-4;fontSize=14;fontFamily=Verdana" parent="1" vertex="1">
          <mxGeometry x="452.5" y="1685" width="190" height="20" as="geometry" />
        </mxCell>
        <mxCell id="lokVkErCchEa_lnMMED--37" value="" style="shape=link;html=1;rounded=0;" parent="1" edge="1">
          <mxGeometry width="100" relative="1" as="geometry">
            <mxPoint x="507.5" y="1735" as="sourcePoint" />
            <mxPoint x="607.5" y="1735" as="targetPoint" />
          </mxGeometry>
        </mxCell>
        <mxCell id="lokVkErCchEa_lnMMED--51" value="" style="shape=table;startSize=0;container=1;collapsible=0;childLayout=tableLayout;fontSize=16;fillColor=#cce5ff;strokeColor=#36393d;" parent="1" vertex="1">
          <mxGeometry x="47.5" y="1765" width="1000" height="269" as="geometry" />
        </mxCell>
        <mxCell id="lokVkErCchEa_lnMMED--52" value="" style="shape=tableRow;horizontal=0;startSize=0;swimlaneHead=0;swimlaneBody=0;strokeColor=#36393d;top=0;left=0;bottom=0;right=0;collapsible=0;dropTarget=0;fillColor=#cdeb8b;points=[[0,0.5],[1,0.5]];portConstraint=eastwest;fontSize=16;" parent="lokVkErCchEa_lnMMED--51" vertex="1">
          <mxGeometry width="1000" height="40" as="geometry" />
        </mxCell>
        <mxCell id="lokVkErCchEa_lnMMED--53" value="" style="shape=partialRectangle;html=1;whiteSpace=wrap;connectable=0;overflow=hidden;top=0;left=0;bottom=0;right=0;pointerEvents=1;fontSize=12;verticalAlign=middle;horizontal=1;labelPosition=center;verticalLabelPosition=middle;align=center;" parent="lokVkErCchEa_lnMMED--52" vertex="1">
          <mxGeometry width="111" height="40" as="geometry">
            <mxRectangle width="111" height="40" as="alternateBounds" />
          </mxGeometry>
        </mxCell>
        <mxCell id="lokVkErCchEa_lnMMED--54" value="" style="shape=partialRectangle;html=1;whiteSpace=wrap;connectable=0;overflow=hidden;top=0;left=0;bottom=0;right=0;pointerEvents=1;fontSize=16;" parent="lokVkErCchEa_lnMMED--52" vertex="1">
          <mxGeometry x="111" width="111" height="40" as="geometry">
            <mxRectangle width="111" height="40" as="alternateBounds" />
          </mxGeometry>
        </mxCell>
        <mxCell id="lokVkErCchEa_lnMMED--55" value="Image" style="shape=partialRectangle;html=1;whiteSpace=wrap;connectable=0;overflow=hidden;top=0;left=0;bottom=0;right=0;pointerEvents=1;fontSize=16;" parent="lokVkErCchEa_lnMMED--52" vertex="1">
          <mxGeometry x="222" width="112" height="40" as="geometry">
            <mxRectangle width="112" height="40" as="alternateBounds" />
          </mxGeometry>
        </mxCell>
        <mxCell id="lokVkErCchEa_lnMMED--56" value="" style="shape=partialRectangle;html=1;whiteSpace=wrap;connectable=0;overflow=hidden;top=0;left=0;bottom=0;right=0;pointerEvents=1;fontSize=16;" parent="lokVkErCchEa_lnMMED--52" vertex="1">
          <mxGeometry x="334" width="111" height="40" as="geometry">
            <mxRectangle width="111" height="40" as="alternateBounds" />
          </mxGeometry>
        </mxCell>
        <mxCell id="lokVkErCchEa_lnMMED--57" value="" style="shape=partialRectangle;html=1;whiteSpace=wrap;connectable=0;overflow=hidden;top=0;left=0;bottom=0;right=0;pointerEvents=1;fontSize=16;" parent="lokVkErCchEa_lnMMED--52" vertex="1">
          <mxGeometry x="445" width="110" height="40" as="geometry">
            <mxRectangle width="110" height="40" as="alternateBounds" />
          </mxGeometry>
        </mxCell>
        <mxCell id="lokVkErCchEa_lnMMED--58" value="" style="shape=partialRectangle;html=1;whiteSpace=wrap;connectable=0;overflow=hidden;top=0;left=0;bottom=0;right=0;pointerEvents=1;fontSize=16;" parent="lokVkErCchEa_lnMMED--52" vertex="1">
          <mxGeometry x="555" width="111" height="40" as="geometry">
            <mxRectangle width="111" height="40" as="alternateBounds" />
          </mxGeometry>
        </mxCell>
        <mxCell id="lokVkErCchEa_lnMMED--88" value="&lt;font style=&quot;font-size: 12px;&quot;&gt;Image size&lt;/font&gt;" style="shape=partialRectangle;html=1;whiteSpace=wrap;connectable=0;overflow=hidden;top=0;left=0;bottom=0;right=0;pointerEvents=1;fontSize=16;" parent="lokVkErCchEa_lnMMED--52" vertex="1">
          <mxGeometry x="666" width="112" height="40" as="geometry">
            <mxRectangle width="112" height="40" as="alternateBounds" />
          </mxGeometry>
        </mxCell>
        <mxCell id="lokVkErCchEa_lnMMED--84" value="&lt;font style=&quot;font-size: 12px;&quot;&gt;Prediction&lt;/font&gt;" style="shape=partialRectangle;html=1;whiteSpace=wrap;connectable=0;overflow=hidden;top=0;left=0;bottom=0;right=0;pointerEvents=1;fontSize=16;" parent="lokVkErCchEa_lnMMED--52" vertex="1">
          <mxGeometry x="778" width="111" height="40" as="geometry">
            <mxRectangle width="111" height="40" as="alternateBounds" />
          </mxGeometry>
        </mxCell>
        <mxCell id="lokVkErCchEa_lnMMED--80" value="&lt;font style=&quot;font-size: 12px;&quot;&gt;Delete Item&lt;/font&gt;" style="shape=partialRectangle;html=1;whiteSpace=wrap;connectable=0;overflow=hidden;top=0;left=0;bottom=0;right=0;pointerEvents=1;fontSize=16;" parent="lokVkErCchEa_lnMMED--52" vertex="1">
          <mxGeometry x="889" width="111" height="40" as="geometry">
            <mxRectangle width="111" height="40" as="alternateBounds" />
          </mxGeometry>
        </mxCell>
        <mxCell id="lokVkErCchEa_lnMMED--59" value="" style="shape=tableRow;horizontal=0;startSize=0;swimlaneHead=0;swimlaneBody=0;strokeColor=inherit;top=0;left=0;bottom=0;right=0;collapsible=0;dropTarget=0;fillColor=none;points=[[0,0.5],[1,0.5]];portConstraint=eastwest;fontSize=16;" parent="lokVkErCchEa_lnMMED--51" vertex="1">
          <mxGeometry y="40" width="1000" height="78" as="geometry" />
        </mxCell>
        <mxCell id="lokVkErCchEa_lnMMED--60" value="" style="shape=partialRectangle;html=1;whiteSpace=wrap;connectable=0;strokeColor=#666666;overflow=hidden;fillColor=#f5f5f5;top=0;left=0;bottom=0;right=0;pointerEvents=1;fontSize=16;fontColor=#333333;" parent="lokVkErCchEa_lnMMED--59" vertex="1">
          <mxGeometry width="111" height="78" as="geometry">
            <mxRectangle width="111" height="78" as="alternateBounds" />
          </mxGeometry>
        </mxCell>
        <mxCell id="lokVkErCchEa_lnMMED--61" value="" style="shape=partialRectangle;html=1;whiteSpace=wrap;connectable=0;strokeColor=#666666;overflow=hidden;fillColor=#f5f5f5;top=0;left=0;bottom=0;right=0;pointerEvents=1;fontSize=16;fontColor=#333333;" parent="lokVkErCchEa_lnMMED--59" vertex="1">
          <mxGeometry x="111" width="111" height="78" as="geometry">
            <mxRectangle width="111" height="78" as="alternateBounds" />
          </mxGeometry>
        </mxCell>
        <mxCell id="lokVkErCchEa_lnMMED--62" value="" style="shape=partialRectangle;html=1;whiteSpace=wrap;connectable=0;strokeColor=#666666;overflow=hidden;fillColor=#f5f5f5;top=0;left=0;bottom=0;right=0;pointerEvents=1;fontSize=16;fontColor=#333333;" parent="lokVkErCchEa_lnMMED--59" vertex="1">
          <mxGeometry x="222" width="112" height="78" as="geometry">
            <mxRectangle width="112" height="78" as="alternateBounds" />
          </mxGeometry>
        </mxCell>
        <mxCell id="lokVkErCchEa_lnMMED--63" value="" style="shape=partialRectangle;html=1;whiteSpace=wrap;connectable=0;strokeColor=#666666;overflow=hidden;fillColor=#f5f5f5;top=0;left=0;bottom=0;right=0;pointerEvents=1;fontSize=16;fontColor=#333333;" parent="lokVkErCchEa_lnMMED--59" vertex="1">
          <mxGeometry x="334" width="111" height="78" as="geometry">
            <mxRectangle width="111" height="78" as="alternateBounds" />
          </mxGeometry>
        </mxCell>
        <mxCell id="lokVkErCchEa_lnMMED--64" value="" style="shape=partialRectangle;html=1;whiteSpace=wrap;connectable=0;strokeColor=#666666;overflow=hidden;fillColor=#f5f5f5;top=0;left=0;bottom=0;right=0;pointerEvents=1;fontSize=16;fontColor=#333333;" parent="lokVkErCchEa_lnMMED--59" vertex="1">
          <mxGeometry x="445" width="110" height="78" as="geometry">
            <mxRectangle width="110" height="78" as="alternateBounds" />
          </mxGeometry>
        </mxCell>
        <mxCell id="lokVkErCchEa_lnMMED--65" style="shape=partialRectangle;html=1;whiteSpace=wrap;connectable=0;strokeColor=#666666;overflow=hidden;fillColor=#f5f5f5;top=0;left=0;bottom=0;right=0;pointerEvents=1;fontSize=16;fontColor=#333333;" parent="lokVkErCchEa_lnMMED--59" vertex="1">
          <mxGeometry x="555" width="111" height="78" as="geometry">
            <mxRectangle width="111" height="78" as="alternateBounds" />
          </mxGeometry>
        </mxCell>
        <mxCell id="lokVkErCchEa_lnMMED--89" style="shape=partialRectangle;html=1;whiteSpace=wrap;connectable=0;strokeColor=#666666;overflow=hidden;fillColor=#f5f5f5;top=0;left=0;bottom=0;right=0;pointerEvents=1;fontSize=16;fontColor=#333333;" parent="lokVkErCchEa_lnMMED--59" vertex="1">
          <mxGeometry x="666" width="112" height="78" as="geometry">
            <mxRectangle width="112" height="78" as="alternateBounds" />
          </mxGeometry>
        </mxCell>
        <mxCell id="lokVkErCchEa_lnMMED--85" style="shape=partialRectangle;html=1;whiteSpace=wrap;connectable=0;strokeColor=#666666;overflow=hidden;fillColor=#f5f5f5;top=0;left=0;bottom=0;right=0;pointerEvents=1;fontSize=16;fontColor=#333333;" parent="lokVkErCchEa_lnMMED--59" vertex="1">
          <mxGeometry x="778" width="111" height="78" as="geometry">
            <mxRectangle width="111" height="78" as="alternateBounds" />
          </mxGeometry>
        </mxCell>
        <mxCell id="lokVkErCchEa_lnMMED--81" style="shape=partialRectangle;html=1;whiteSpace=wrap;connectable=0;strokeColor=#666666;overflow=hidden;fillColor=#f5f5f5;top=0;left=0;bottom=0;right=0;pointerEvents=1;fontSize=16;fontColor=#333333;" parent="lokVkErCchEa_lnMMED--59" vertex="1">
          <mxGeometry x="889" width="111" height="78" as="geometry">
            <mxRectangle width="111" height="78" as="alternateBounds" />
          </mxGeometry>
        </mxCell>
        <mxCell id="lokVkErCchEa_lnMMED--66" value="" style="shape=tableRow;horizontal=0;startSize=0;swimlaneHead=0;swimlaneBody=0;strokeColor=inherit;top=0;left=0;bottom=0;right=0;collapsible=0;dropTarget=0;fillColor=none;points=[[0,0.5],[1,0.5]];portConstraint=eastwest;fontSize=16;" parent="lokVkErCchEa_lnMMED--51" vertex="1">
          <mxGeometry y="118" width="1000" height="75" as="geometry" />
        </mxCell>
        <mxCell id="lokVkErCchEa_lnMMED--67" value="" style="shape=partialRectangle;html=1;whiteSpace=wrap;connectable=0;strokeColor=#666666;overflow=hidden;fillColor=#f5f5f5;top=0;left=0;bottom=0;right=0;pointerEvents=1;fontSize=16;fontColor=#333333;" parent="lokVkErCchEa_lnMMED--66" vertex="1">
          <mxGeometry width="111" height="75" as="geometry">
            <mxRectangle width="111" height="75" as="alternateBounds" />
          </mxGeometry>
        </mxCell>
        <mxCell id="lokVkErCchEa_lnMMED--68" value="" style="shape=partialRectangle;html=1;whiteSpace=wrap;connectable=0;strokeColor=#666666;overflow=hidden;fillColor=#f5f5f5;top=0;left=0;bottom=0;right=0;pointerEvents=1;fontSize=16;fontColor=#333333;" parent="lokVkErCchEa_lnMMED--66" vertex="1">
          <mxGeometry x="111" width="111" height="75" as="geometry">
            <mxRectangle width="111" height="75" as="alternateBounds" />
          </mxGeometry>
        </mxCell>
        <mxCell id="lokVkErCchEa_lnMMED--69" value="" style="shape=partialRectangle;html=1;whiteSpace=wrap;connectable=0;strokeColor=#666666;overflow=hidden;fillColor=#f5f5f5;top=0;left=0;bottom=0;right=0;pointerEvents=1;fontSize=16;fontColor=#333333;" parent="lokVkErCchEa_lnMMED--66" vertex="1">
          <mxGeometry x="222" width="112" height="75" as="geometry">
            <mxRectangle width="112" height="75" as="alternateBounds" />
          </mxGeometry>
        </mxCell>
        <mxCell id="lokVkErCchEa_lnMMED--70" value="" style="shape=partialRectangle;html=1;whiteSpace=wrap;connectable=0;strokeColor=#666666;overflow=hidden;fillColor=#f5f5f5;top=0;left=0;bottom=0;right=0;pointerEvents=1;fontSize=16;fontColor=#333333;" parent="lokVkErCchEa_lnMMED--66" vertex="1">
          <mxGeometry x="334" width="111" height="75" as="geometry">
            <mxRectangle width="111" height="75" as="alternateBounds" />
          </mxGeometry>
        </mxCell>
        <mxCell id="lokVkErCchEa_lnMMED--71" value="" style="shape=partialRectangle;html=1;whiteSpace=wrap;connectable=0;strokeColor=#666666;overflow=hidden;fillColor=#f5f5f5;top=0;left=0;bottom=0;right=0;pointerEvents=1;fontSize=16;fontColor=#333333;" parent="lokVkErCchEa_lnMMED--66" vertex="1">
          <mxGeometry x="445" width="110" height="75" as="geometry">
            <mxRectangle width="110" height="75" as="alternateBounds" />
          </mxGeometry>
        </mxCell>
        <mxCell id="lokVkErCchEa_lnMMED--72" style="shape=partialRectangle;html=1;whiteSpace=wrap;connectable=0;strokeColor=#666666;overflow=hidden;fillColor=#f5f5f5;top=0;left=0;bottom=0;right=0;pointerEvents=1;fontSize=16;fontColor=#333333;" parent="lokVkErCchEa_lnMMED--66" vertex="1">
          <mxGeometry x="555" width="111" height="75" as="geometry">
            <mxRectangle width="111" height="75" as="alternateBounds" />
          </mxGeometry>
        </mxCell>
        <mxCell id="lokVkErCchEa_lnMMED--90" style="shape=partialRectangle;html=1;whiteSpace=wrap;connectable=0;strokeColor=#666666;overflow=hidden;fillColor=#f5f5f5;top=0;left=0;bottom=0;right=0;pointerEvents=1;fontSize=16;fontColor=#333333;" parent="lokVkErCchEa_lnMMED--66" vertex="1">
          <mxGeometry x="666" width="112" height="75" as="geometry">
            <mxRectangle width="112" height="75" as="alternateBounds" />
          </mxGeometry>
        </mxCell>
        <mxCell id="lokVkErCchEa_lnMMED--86" style="shape=partialRectangle;html=1;whiteSpace=wrap;connectable=0;strokeColor=#666666;overflow=hidden;fillColor=#f5f5f5;top=0;left=0;bottom=0;right=0;pointerEvents=1;fontSize=16;fontColor=#333333;" parent="lokVkErCchEa_lnMMED--66" vertex="1">
          <mxGeometry x="778" width="111" height="75" as="geometry">
            <mxRectangle width="111" height="75" as="alternateBounds" />
          </mxGeometry>
        </mxCell>
        <mxCell id="lokVkErCchEa_lnMMED--82" style="shape=partialRectangle;html=1;whiteSpace=wrap;connectable=0;strokeColor=#666666;overflow=hidden;fillColor=#f5f5f5;top=0;left=0;bottom=0;right=0;pointerEvents=1;fontSize=16;fontColor=#333333;" parent="lokVkErCchEa_lnMMED--66" vertex="1">
          <mxGeometry x="889" width="111" height="75" as="geometry">
            <mxRectangle width="111" height="75" as="alternateBounds" />
          </mxGeometry>
        </mxCell>
        <mxCell id="lokVkErCchEa_lnMMED--73" value="" style="shape=tableRow;horizontal=0;startSize=0;swimlaneHead=0;swimlaneBody=0;strokeColor=inherit;top=0;left=0;bottom=0;right=0;collapsible=0;dropTarget=0;fillColor=none;points=[[0,0.5],[1,0.5]];portConstraint=eastwest;fontSize=16;" parent="lokVkErCchEa_lnMMED--51" vertex="1">
          <mxGeometry y="193" width="1000" height="76" as="geometry" />
        </mxCell>
        <mxCell id="lokVkErCchEa_lnMMED--74" value="" style="shape=partialRectangle;html=1;whiteSpace=wrap;connectable=0;strokeColor=#666666;overflow=hidden;fillColor=#f5f5f5;top=0;left=0;bottom=0;right=0;pointerEvents=1;fontSize=16;fontColor=#333333;" parent="lokVkErCchEa_lnMMED--73" vertex="1">
          <mxGeometry width="111" height="76" as="geometry">
            <mxRectangle width="111" height="76" as="alternateBounds" />
          </mxGeometry>
        </mxCell>
        <mxCell id="lokVkErCchEa_lnMMED--75" value="" style="shape=partialRectangle;html=1;whiteSpace=wrap;connectable=0;strokeColor=#666666;overflow=hidden;fillColor=#f5f5f5;top=0;left=0;bottom=0;right=0;pointerEvents=1;fontSize=16;fontColor=#333333;" parent="lokVkErCchEa_lnMMED--73" vertex="1">
          <mxGeometry x="111" width="111" height="76" as="geometry">
            <mxRectangle width="111" height="76" as="alternateBounds" />
          </mxGeometry>
        </mxCell>
        <mxCell id="lokVkErCchEa_lnMMED--76" value="" style="shape=partialRectangle;html=1;whiteSpace=wrap;connectable=0;strokeColor=#666666;overflow=hidden;fillColor=#f5f5f5;top=0;left=0;bottom=0;right=0;pointerEvents=1;fontSize=16;fontColor=#333333;" parent="lokVkErCchEa_lnMMED--73" vertex="1">
          <mxGeometry x="222" width="112" height="76" as="geometry">
            <mxRectangle width="112" height="76" as="alternateBounds" />
          </mxGeometry>
        </mxCell>
        <mxCell id="lokVkErCchEa_lnMMED--77" value="" style="shape=partialRectangle;html=1;whiteSpace=wrap;connectable=0;strokeColor=#666666;overflow=hidden;fillColor=#f5f5f5;top=0;left=0;bottom=0;right=0;pointerEvents=1;fontSize=16;fontColor=#333333;" parent="lokVkErCchEa_lnMMED--73" vertex="1">
          <mxGeometry x="334" width="111" height="76" as="geometry">
            <mxRectangle width="111" height="76" as="alternateBounds" />
          </mxGeometry>
        </mxCell>
        <mxCell id="lokVkErCchEa_lnMMED--78" value="" style="shape=partialRectangle;html=1;whiteSpace=wrap;connectable=0;strokeColor=#666666;overflow=hidden;fillColor=#f5f5f5;top=0;left=0;bottom=0;right=0;pointerEvents=1;fontSize=16;fontColor=#333333;" parent="lokVkErCchEa_lnMMED--73" vertex="1">
          <mxGeometry x="445" width="110" height="76" as="geometry">
            <mxRectangle width="110" height="76" as="alternateBounds" />
          </mxGeometry>
        </mxCell>
        <mxCell id="lokVkErCchEa_lnMMED--79" style="shape=partialRectangle;html=1;whiteSpace=wrap;connectable=0;overflow=hidden;top=0;left=0;bottom=0;right=0;pointerEvents=1;fontSize=16;fillColor=#f5f5f5;fontColor=#333333;strokeColor=#666666;" parent="lokVkErCchEa_lnMMED--73" vertex="1">
          <mxGeometry x="555" width="111" height="76" as="geometry">
            <mxRectangle width="111" height="76" as="alternateBounds" />
          </mxGeometry>
        </mxCell>
        <mxCell id="lokVkErCchEa_lnMMED--91" style="shape=partialRectangle;html=1;whiteSpace=wrap;connectable=0;overflow=hidden;top=0;left=0;bottom=0;right=0;pointerEvents=1;fontSize=16;fillColor=#f5f5f5;fontColor=#333333;strokeColor=#666666;" parent="lokVkErCchEa_lnMMED--73" vertex="1">
          <mxGeometry x="666" width="112" height="76" as="geometry">
            <mxRectangle width="112" height="76" as="alternateBounds" />
          </mxGeometry>
        </mxCell>
        <mxCell id="lokVkErCchEa_lnMMED--87" style="shape=partialRectangle;html=1;whiteSpace=wrap;connectable=0;overflow=hidden;top=0;left=0;bottom=0;right=0;pointerEvents=1;fontSize=16;fillColor=#f5f5f5;fontColor=#333333;strokeColor=#666666;" parent="lokVkErCchEa_lnMMED--73" vertex="1">
          <mxGeometry x="778" width="111" height="76" as="geometry">
            <mxRectangle width="111" height="76" as="alternateBounds" />
          </mxGeometry>
        </mxCell>
        <mxCell id="lokVkErCchEa_lnMMED--83" style="shape=partialRectangle;html=1;whiteSpace=wrap;connectable=0;overflow=hidden;top=0;left=0;bottom=0;right=0;pointerEvents=1;fontSize=16;fillColor=#f5f5f5;fontColor=#333333;strokeColor=#666666;" parent="lokVkErCchEa_lnMMED--73" vertex="1">
          <mxGeometry x="889" width="111" height="76" as="geometry">
            <mxRectangle width="111" height="76" as="alternateBounds" />
          </mxGeometry>
        </mxCell>
        <mxCell id="lokVkErCchEa_lnMMED--92" value="© 2023 Edward Tan | All rights reserved." style="rounded=0;whiteSpace=wrap;html=1;" parent="1" vertex="1">
          <mxGeometry x="40" y="2050" width="1020" height="60" as="geometry" />
        </mxCell>
        <mxCell id="sqrYIsyFVXAI3JqMpo5H-1" value="RESULT/ERROR" style="rounded=1;whiteSpace=wrap;html=1;" parent="1" vertex="1">
          <mxGeometry x="453" y="1560" width="194" height="35" as="geometry" />
        </mxCell>
        <mxCell id="JLFXNR7JM0bvwlJZvMSM-1" value="HOME" style="text;html=1;points=[];align=left;verticalAlign=top;spacingTop=-4;fontSize=14;fontFamily=Verdana" parent="1" vertex="1">
          <mxGeometry x="760" y="70" width="60" height="20" as="geometry" />
        </mxCell>
        <mxCell id="CWQsY11OtAqy3V1x673w-1" value="LOGO" style="ellipse;whiteSpace=wrap;html=1;aspect=fixed;" vertex="1" parent="1">
          <mxGeometry x="90" y="40" width="80" height="80" as="geometry" />
        </mxCell>
        <mxCell id="CWQsY11OtAqy3V1x673w-2" value="&lt;h1&gt;&lt;font style=&quot;font-size: 16px; font-weight: normal;&quot;&gt;Drag and drop or click here to upload image&lt;/font&gt;&amp;nbsp;&lt;/h1&gt;" style="text;html=1;strokeColor=none;fillColor=none;spacing=5;spacingTop=-20;whiteSpace=wrap;overflow=hidden;rounded=0;align=center;" vertex="1" parent="1">
          <mxGeometry x="427.5" y="1385" width="260" height="120" as="geometry" />
        </mxCell>
        <mxCell id="CWQsY11OtAqy3V1x673w-3" value="" style="shape=flexArrow;endArrow=classic;html=1;rounded=0;" edge="1" parent="1">
          <mxGeometry width="50" height="50" relative="1" as="geometry">
            <mxPoint x="549.6199999999999" y="1385" as="sourcePoint" />
            <mxPoint x="550.0999999999999" y="1335" as="targetPoint" />
          </mxGeometry>
        </mxCell>
        <mxCell id="CWQsY11OtAqy3V1x673w-4" value="TO CLASSIFIER" style="rounded=1;whiteSpace=wrap;html=1;" vertex="1" parent="1">
          <mxGeometry x="485" y="490" width="130" height="35" as="geometry" />
        </mxCell>
        <mxCell id="CWQsY11OtAqy3V1x673w-5" value="&lt;h1&gt;VEGETABLE CLASSIFIER&lt;/h1&gt;" style="text;html=1;strokeColor=none;fillColor=none;spacing=5;spacingTop=-20;whiteSpace=wrap;overflow=hidden;rounded=0;align=center;" vertex="1" parent="1">
          <mxGeometry x="358" y="1160" width="388" height="40" as="geometry" />
        </mxCell>
        <mxCell id="CWQsY11OtAqy3V1x673w-6" value="&lt;h1&gt;128x128&lt;/h1&gt;" style="text;html=1;strokeColor=none;fillColor=none;spacing=5;spacingTop=-20;whiteSpace=wrap;overflow=hidden;rounded=0;" vertex="1" parent="1">
          <mxGeometry x="382.5" y="1200" width="102.5" height="40" as="geometry" />
        </mxCell>
        <mxCell id="CWQsY11OtAqy3V1x673w-7" value="&lt;h1&gt;31x31&lt;/h1&gt;" style="text;html=1;strokeColor=none;fillColor=none;spacing=5;spacingTop=-20;whiteSpace=wrap;overflow=hidden;rounded=0;" vertex="1" parent="1">
          <mxGeometry x="640" y="1200" width="70" height="40" as="geometry" />
        </mxCell>
        <mxCell id="CWQsY11OtAqy3V1x673w-15" value="" style="shape=ext;double=1;rounded=1;whiteSpace=wrap;html=1;" vertex="1" parent="1">
          <mxGeometry x="517.5" y="1205" width="80" height="30" as="geometry" />
        </mxCell>
        <mxCell id="CWQsY11OtAqy3V1x673w-9" value="" style="ellipse;shape=doubleEllipse;whiteSpace=wrap;html=1;aspect=fixed;" vertex="1" parent="1">
          <mxGeometry x="517.5" y="1205" width="30" height="30" as="geometry" />
        </mxCell>
      </root>
    </mxGraphModel>
  </diagram>
</mxfile>
